<svg width="100" height="100" viewBox="0 0 512 512" fill="none" xmlns="http://www.w3.org/2000/svg">
    <path d="M179.6 65.6C176.6 67 173.1 65.7 171.7 62.7C170.3 59.7 171.6 56.2 174.6 54.8C203.6 41.4 234.8 34.5 267.1 34.5C388.5 34.5 487 132.9 487 254.3V254.4C487 290.7 477.9 324.5 461.8 356.5L470.4 350.7C473.1 348.9 476.8 349.6 478.7 352.3C480.5 355 479.8 358.8 477.1 360.6L450.1 378.6C446 381.5 440.8 378.7 440.5 374.2L438.3 341.5C438.1 338.2 440.6 335.3 443.9 335.2C447.2 335 450 337.5 450.2 340.8L450.9 351.2C466.1 321 474.9 288.6 474.9 254.4V254.3C474.9 139.5 381.7 46.4 267 46.4C236.5 46.4 206.9 52.9 179.6 65.6ZM41.5 257.4C39.9 260.3 36.2 261.3 33.4 259.6C30.5 258 29.5 254.3 31.2 251.4L47.6 223.1C49.9 219.1 55.7 219.1 58 223.2L74.4 251.5C76 254.4 75.1 258 72.2 259.7C69.3 261.3 65.7 260.4 64 257.5L59.1 249C59.1 250.9 59 252.9 59 254.6C59 369.5 152.1 462.6 267 462.6C270.3 462.6 273 465.3 273 468.6C273 471.9 270.3 474.6 267 474.6C145.5 474.6 47 376.1 47 254.6C47 253.3 47.1 250.8 47.1 248L41.5 257.4ZM131.3 113.8C160.4 117.2 182.9 142.2 182.9 171.9V195.3C182.9 198.6 180.2 201.3 176.9 201.3H31C27.7 201.3 25 198.6 25 195.3V171.9C25 142.2 47.5 117.2 76.6 113.8C57.8 97.8 56.6 69.2 74 51.7C90.5 35.2 117.2 35.2 133.7 51.7C151.3 69.2 150.1 97.8 131.3 113.8ZM104 51.3C87.3 51.3 73.8 64.8 73.8 81.5C73.8 98.2 87.3 111.7 104 111.7C120.7 111.7 134.2 98.2 134.2 81.5C134.2 64.9 120.7 51.3 104 51.3ZM405 390.1C434.1 393.6 456.6 418.5 456.6 448.2V471.6C456.6 474.9 453.9 477.6 450.6 477.6H304.7C301.4 477.6 298.7 474.9 298.7 471.6V448.2C298.7 418.5 321.2 393.5 350.3 390.1C331.5 374.1 330.3 345.5 347.7 328C364.2 311.5 390.9 311.5 407.4 328C425 345.5 423.8 374.1 405 390.1ZM377.7 327.6C361 327.6 347.5 341.1 347.5 357.8C347.5 374.5 361 388 377.7 388C394.4 388 407.9 374.5 407.9 357.8C407.9 341.1 394.4 327.6 377.7 327.6ZM125.2 264.8H141C147.7 264.8 153.6 269.2 155.7 275.4C162.2 274.3 164.4 272.1 167.7 268.6C171.9 264.1 177.6 258.1 191.2 250.5C211.8 238.9 220.1 248.5 227.7 256.8V248.8C214.3 245.5 204.4 233.3 204.4 219.1V181.8C204.4 165 218.1 151.3 234.9 151.3H276.9L359.9 99.7C363.9 97.2 369.1 100.1 369.1 104.8V161.7C400.4 167.8 413.2 206.9 390.9 230.6C385.2 236.7 377.6 241.1 369.1 242.7V296.2C369.1 300.8 364 304 359.6 301.1L276.9 249.7H269.2V262.4C286.1 264.7 291.4 285.7 278.8 296C282.4 302.7 281.5 311.8 276.9 317.8C282.3 325.4 281.4 336.5 274 342.6C281.7 355.3 271.4 371.1 255.7 370.9L194.6 370C172 369.6 170.2 361.2 155.5 358.8C153.3 364.9 147.6 369.1 140.9 369.1H125.1C116.6 369.1 109.6 362.2 109.6 353.7V280.4C109.7 271.7 116.7 264.8 125.2 264.8ZM156.5 287.4V346.8C174.6 349.2 175.2 357.7 194.9 358L256 358.8C263.4 358.9 268.9 350.7 260.7 345.6C255.9 342.6 257.6 335.2 263.2 334.6C270.3 333.7 269.6 325 265.3 322.9C260.8 320.6 261 314.2 265.5 312.1C270.5 309.8 269.8 300.9 267 300.2C261 298.7 260.7 290 267.3 288.5C276.8 286.4 275.6 274.3 266.7 274L234.1 272.9C216.6 273 217.8 249.1 197.1 260.8C171.2 275.4 176.5 284.8 156.5 287.4ZM420.2 208.1C416.9 208.1 414.2 205.4 414.2 202.1C414.2 198.8 416.9 196.1 420.2 196.1H438.5C441.8 196.1 444.5 198.8 444.5 202.1C444.5 205.4 441.8 208.1 438.5 208.1H420.2ZM411.3 163.1C408.9 165.3 405.1 165.2 402.9 162.8C400.7 160.4 400.8 156.6 403.2 154.3L414.5 143.9C416.9 141.7 420.7 141.8 422.9 144.3C425.1 146.7 425 150.5 422.6 152.7L411.3 163.1ZM403.2 249.8C400.8 247.6 400.6 243.8 402.9 241.3C405.1 238.9 408.9 238.7 411.3 241L422.6 251.4C425 253.6 425.2 257.4 422.9 259.8C420.7 262.2 416.9 262.4 414.5 260.2L403.2 249.8ZM382.2 181.8C378.7 178 374.2 175.2 369.1 173.8V230.2C389.9 224.4 397.1 197.8 382.2 181.8ZM357.1 115.4L284.7 160.5V240.2L357.1 285.3V115.4Z" fill="#F4921F"/>
    </svg>
    