<svg width="100" height="100" viewBox="0 0 512 512" fill="none" xmlns="http://www.w3.org/2000/svg">
    <g clip-path="url(#clip0_1_2)">
    <path d="M375.53 310.355C378.146 312.173 380.66 313.803 383.064 315.236C369.149 317.908 357.267 319.9 346.911 321.636C302.56 329.071 280.414 332.805 230.619 366.314C230.454 366.415 230.295 366.525 230.137 366.638C229.7 366.933 229.271 367.218 228.83 367.518C197.18 346.626 176.713 321.86 164.934 290.252C219.97 250.626 230.957 230.823 254.201 188.923C259.152 179.999 264.83 169.763 271.721 157.964C272.394 161.285 273.259 164.826 274.363 168.629C274.451 168.933 274.555 169.246 274.646 169.552C274.955 170.594 275.269 171.626 275.59 172.636C275.718 173.037 275.852 173.441 275.984 173.844C276.338 174.929 276.696 175.999 277.057 177.035C277.067 177.063 277.078 177.091 277.087 177.119C277.433 178.111 277.803 179.115 278.171 180.118C278.318 180.516 278.458 180.911 278.609 181.312C279.031 182.437 279.473 183.571 279.923 184.708C280.018 184.948 280.11 185.186 280.206 185.426C280.725 186.724 281.264 188.03 281.818 189.343C281.828 189.366 281.837 189.388 281.847 189.411C287.153 201.971 294.053 215.159 302.241 228.371C302.311 228.485 302.382 228.599 302.453 228.713C303.245 229.987 304.046 231.261 304.861 232.535C305.129 232.954 305.401 233.371 305.67 233.79C306.339 234.826 307.009 235.861 307.693 236.895C308.197 237.658 308.711 238.417 309.222 239.178C309.719 239.916 310.209 240.655 310.713 241.392C311.768 242.936 312.836 244.476 313.92 246.009C315.01 247.551 316.112 249.079 317.223 250.597C317.79 251.372 318.363 252.134 318.934 252.902C319.452 253.597 319.966 254.295 320.488 254.984C321.278 256.03 322.073 257.061 322.87 258.091C323.149 258.452 323.427 258.815 323.707 259.174C324.667 260.406 325.633 261.622 326.603 262.83C326.69 262.939 326.778 263.049 326.865 263.157C336.74 275.435 347.033 286.454 357.256 295.699C357.298 295.737 357.339 295.775 357.381 295.813C358.351 296.689 359.319 297.546 360.287 298.389C360.582 298.647 360.877 298.903 361.172 299.157C361.97 299.845 362.767 300.521 363.564 301.186C364.033 301.578 364.501 301.963 364.968 302.346C365.643 302.899 366.318 303.448 366.991 303.984C367.176 304.131 367.362 304.288 367.547 304.434C368.232 304.975 368.936 305.52 369.65 306.066C369.908 306.264 370.165 306.457 370.423 306.652C371.358 307.359 372.313 308.066 373.292 308.772C373.437 308.877 373.584 308.991 373.729 309.095C374 309.289 374.259 309.462 374.527 309.652C374.857 309.888 375.193 310.122 375.53 310.355ZM321.556 214.653L315.313 219.064C315.563 219.471 315.811 219.877 316.064 220.285C316.562 221.086 317.064 221.889 317.575 222.694C318.083 223.496 318.601 224.301 319.122 225.107C319.594 225.837 320.065 226.567 320.547 227.301C321.186 228.273 321.842 229.25 322.501 230.228C322.896 230.815 323.284 231.401 323.686 231.989C324.742 233.537 325.818 235.092 326.923 236.654C326.948 236.69 326.972 236.725 326.997 236.761C327.044 236.828 327.093 236.893 327.14 236.96C328.123 238.349 329.115 239.725 330.111 241.089C330.694 241.887 331.284 242.673 331.873 243.463C332.31 244.05 332.745 244.64 333.184 245.221C333.992 246.291 334.806 247.351 335.623 248.405C335.815 248.654 336.007 248.904 336.199 249.151C337.396 250.686 338.603 252.198 339.815 253.697L346.045 249.287C340.606 245.745 335.295 240.542 330.761 234.134C326.221 227.72 323.082 220.97 321.556 214.653ZM122.059 332.455C98.097 329.742 75.948 318.883 58.988 301.365C40.043 281.797 29.61 256.006 29.61 228.745C29.61 171.187 76.437 124.36 133.996 124.36C179.014 124.36 218.383 153.456 232.651 194.662C235.048 190.432 237.532 185.955 240.195 181.155C240.515 180.579 240.843 179.987 241.169 179.4C221.921 137.591 180.273 110.782 133.996 110.782C68.935 110.782 16.004 163.7 16.004 228.745C16.004 290.27 63.339 340.937 123.503 346.265C122.97 343.741 122.572 341.185 122.334 338.605C122.142 336.534 122.053 334.484 122.059 332.455ZM288.405 379.339L269.763 361.07C268.52 361.737 267.26 362.428 265.982 363.143L284.273 379.771L288.405 379.339ZM380.594 198.846C362.897 173.827 342.991 152.767 324.542 139.541C311.244 130.008 301.562 126.696 295.597 126.696C293.26 126.696 291.493 127.204 290.304 128.047C289.345 128.726 288.547 129.718 287.9 130.97C287.853 131.083 287.813 131.197 287.76 131.308C287.125 132.653 286.657 134.244 286.352 136.05C286.343 136.108 286.329 136.159 286.32 136.217C286.31 136.281 286.305 136.352 286.295 136.416C284.495 148.987 290.277 173.012 305.739 202.333C305.743 202.341 305.747 202.348 305.751 202.356C306.237 203.277 306.752 204.214 307.257 205.146L327.602 190.769C327.83 190.608 328.063 190.461 328.301 190.327C331.743 188.153 335.931 187.395 340.494 188.169C349.574 189.711 359.639 197.195 367.418 208.19C375.191 219.176 378.897 231.157 377.332 240.239C376.59 244.545 374.68 248.096 371.782 250.607C371.538 250.83 371.283 251.044 371.007 251.24L370.712 251.449C370.662 251.485 370.617 251.528 370.566 251.564C370.499 251.612 370.427 251.652 370.359 251.699L350.253 265.932C357.166 273.605 364.185 280.574 371.092 286.574C371.107 286.587 371.123 286.601 371.138 286.614C372.084 287.436 373.028 288.233 373.969 289.018C374.214 289.222 374.459 289.425 374.704 289.626C375.479 290.266 376.253 290.892 377.024 291.506C377.475 291.864 377.924 292.215 378.374 292.564C378.937 293.002 379.501 293.443 380.061 293.865C380.54 294.227 381.017 294.573 381.495 294.925C388.322 299.951 394.777 303.76 400.413 306.131C400.643 306.227 400.874 306.323 401.101 306.413C401.478 306.566 401.849 306.706 402.219 306.845C409.75 309.644 414.791 309.352 417.286 307.587C421.514 304.596 424.201 293.336 417.855 271.455C411.528 249.638 398.295 223.852 380.594 198.846ZM151.8 300.649C141.772 310.754 137.015 323.413 138.28 337.134C139.996 355.736 152.551 373.484 169.519 381.299C184.08 388.005 200.002 386.548 214.671 377.261C184.605 356.251 164.318 331.511 151.8 300.649ZM282.373 396.073C282.095 396.102 281.816 396.117 281.539 396.117C279.557 396.117 277.634 395.381 276.153 394.035L251.61 371.723C250.476 372.438 249.318 373.178 248.152 373.931L304.977 421.858L321.787 412.051L303.252 393.887L282.373 396.073ZM124.223 316.564C79.646 311.739 45.626 274.388 45.626 228.745C45.626 180.018 85.269 140.376 133.996 140.376C177.038 140.376 213.968 171.793 221.082 213.905C206.656 235.972 190.008 252.929 150.49 280.885C137.008 290.421 128.076 302.686 124.223 316.564ZM128.934 265.955L180.553 201.552C183.319 198.102 182.763 193.062 179.313 190.296C175.863 187.53 170.823 188.084 168.056 191.536L122.862 247.923L100.041 217.815C97.37 214.291 92.347 213.598 88.822 216.27C85.298 218.942 84.606 223.964 87.278 227.489L116.305 265.785C117.796 267.752 120.111 268.922 122.578 268.955C122.614 268.956 122.65 268.956 122.687 268.956C125.114 268.955 127.413 267.852 128.934 265.955ZM361.305 238.444C362.322 236.555 361.744 227.899 354.344 217.44C346.955 206.997 338.998 203.557 336.873 203.881C335.856 205.769 336.433 214.425 343.833 224.885C351.222 235.328 359.179 238.759 361.305 238.444ZM364.068 129.2C365.564 130.443 367.378 131.05 369.182 131.05C371.48 131.05 373.761 130.067 375.345 128.161L410.806 85.499C413.633 82.098 413.168 77.049 409.766 74.222C406.365 71.395 401.315 71.86 398.489 75.261L363.028 117.923C360.201 121.324 360.667 126.373 364.068 129.2ZM511.514 217.069C509.981 212.921 505.377 210.8 501.227 212.333L451.819 230.588C447.671 232.121 445.55 236.727 447.083 240.875C448.278 244.108 451.339 246.109 454.596 246.109C455.517 246.109 456.455 245.949 457.37 245.611L506.778 227.356C510.926 225.823 513.046 221.218 511.514 217.069ZM407.125 178.265C408.686 180.47 411.158 181.648 413.668 181.648C415.267 181.648 416.882 181.169 418.287 180.176L466.674 145.934C470.284 143.378 471.139 138.381 468.585 134.771C466.031 131.162 461.033 130.308 457.422 132.86L409.035 167.102C405.426 169.658 404.571 174.655 407.125 178.265Z" fill="#F4921F"/>
    </g>
    <defs>
    <clipPath id="clip0_1_2">
    <rect width="512" height="512" fill="white"/>
    </clipPath>
    </defs>
    </svg>
    