<svg width="100" height="100" viewBox="0 0 512 512" fill="none" xmlns="http://www.w3.org/2000/svg">
    <g clip-path="url(#clip0_1_41)">
    <path d="M460.583 321.375C466.02 321.375 470.427 316.975 470.427 311.548C470.427 306.12 466.02 301.72 460.583 301.72C455.147 301.72 450.739 306.12 450.739 311.548C450.739 316.975 455.147 321.375 460.583 321.375Z" fill="#F4921F"/>
    <path d="M219.09 441.237V336.211C218.911 330.466 225.797 326.542 230.663 329.616L319.776 382.129C324.738 384.853 324.737 392.596 319.776 395.32L230.663 447.833C224.775 451.435 219.087 446.972 219.09 441.237ZM234.435 349.626V427.822L300.784 388.724L234.435 349.626Z" fill="#F4921F"/>
    <path d="M461.388 278.399C465.625 278.399 469.06 274.97 469.06 270.741V202.53C469.06 198.3 465.625 194.872 461.388 194.872H108.372L440.099 74.4139C444 73.0836 446.172 68.4351 444.684 64.5962L422.957 5.04012C421.508 1.06775 417.108 -0.98244 413.125 0.463851L61.0801 128.298C46.0165 133.419 37.6462 151.364 43.3985 166.171L57.1536 203.877V504.342C57.1536 508.571 60.5888 512 64.826 512H461.388C465.625 512 469.06 508.571 469.06 504.342V347.321C469.06 343.091 465.625 339.663 461.388 339.663C457.15 339.663 453.715 343.091 453.715 347.321V496.684H72.4983V278.399H461.388ZM72.4983 263.083V210.188H102.765L142.34 263.083H72.4983ZM453.715 210.187V263.082H423.623L384.047 210.187H453.715ZM364.896 210.187L404.472 263.082H338.653L299.077 210.187H364.896ZM279.926 210.187L319.502 263.082H252.548L212.973 210.187H279.926ZM193.822 210.187L233.397 263.082H161.491L121.916 210.187H193.822ZM411.163 17.4747L427.64 62.6401L398.419 73.2521L348.391 40.2686L411.163 17.4747ZM330.438 46.7878L380.466 79.7713L318.136 102.404L268.107 69.4208L330.438 46.7878ZM250.155 75.9401L300.183 108.923L234.378 132.818L184.35 99.8345L250.155 75.9401ZM166.397 106.355L216.425 139.337L155.338 161.52L105.311 128.535L166.397 106.355ZM66.3259 142.69L87.3572 135.054L137.384 168.038L69.4132 192.719L57.8166 160.93C55.0465 153.801 59.0736 145.156 66.3259 142.69Z" fill="#F4921F"/>
    </g>
    <defs>
    <clipPath id="clip0_1_41">
    <rect width="512" height="512" fill="white"/>
    </clipPath>
    </defs>
    </svg>
    