<svg width="100" height="100" viewBox="0 0 510 510" fill="none" xmlns="http://www.w3.org/2000/svg">
    <path fill-rule="evenodd" clip-rule="evenodd" d="M163.113 409.432H61.422C39.586 409.432 21.71 391.556 21.71 369.72V151.626C21.71 129.79 39.586 111.914 61.422 111.914H102.567C103.25 111.327 104.039 110.849 104.911 110.513C104.911 110.513 120.806 104.396 120.805 104.396C123.189 95.907 126.566 87.759 130.889 80.09L123.965 64.516C122.62 61.491 123.277 57.95 125.618 55.609L148.394 32.833C150.735 30.492 154.276 29.835 157.301 31.18L172.875 38.105C180.544 33.782 188.688 30.408 197.156 28.043L203.3 12.12C204.491 9.035 207.457 7 210.764 7H242.981C246.292 7 249.261 9.04 250.449 12.131L256.564 28.045C265.03 30.41 273.171 33.783 280.838 38.105L296.412 31.18C299.437 29.835 302.978 30.492 305.319 32.833L328.095 55.609C330.433 57.947 331.092 61.483 329.753 64.506C329.753 64.506 322.852 80.084 322.852 80.083C327.178 87.756 330.554 95.908 332.919 104.4L348.801 110.513C349.674 110.849 350.463 111.327 351.146 111.914H410.394C411.378 111.914 412.354 111.951 413.32 112.022L431.02 81.376C438.68 68.079 455.446 63.45 468.297 70.877L474.914 74.669L474.929 74.678C487.775 82.077 492.171 98.941 484.511 112.238L484.506 112.245L472.982 132.201L450.106 171.816V369.72C450.106 391.556 432.23 409.432 410.394 409.432H308.732V443.812H348.985C368.685 443.812 384.023 457.662 384.023 473.392V495C384.023 499.418 380.441 503 376.023 503H95.821C91.403 503 87.821 499.418 87.821 495V473.392C87.821 457.662 103.159 443.812 122.859 443.812H163.113V409.432ZM99.785 127.914H61.422C48.384 127.914 37.71 138.588 37.71 151.626V369.72C37.71 382.758 48.384 393.432 61.422 393.432H410.394C423.432 393.432 434.106 382.758 434.106 369.72V199.524L423.6 217.717V348.028C423.6 352.446 420.018 356.028 415.6 356.028H56.216C51.798 356.028 48.216 352.446 48.216 348.028V150.843C48.216 143.988 53.785 138.448 60.639 138.448H99.785V127.914ZM292.732 409.432H179.113V443.812H292.732V409.432ZM353.928 127.914V138.448H398.057L404.141 127.914H353.928ZM352.705 154.448C351.805 155.882 350.453 157.027 348.801 157.663L332.914 163.777C330.545 172.242 327.155 180.384 322.848 188.05L329.753 203.637C331.092 206.66 330.433 210.196 328.095 212.534L305.319 235.31C302.981 237.648 299.445 238.307 296.422 236.968C296.422 236.968 280.849 230.07 280.85 230.069C273.195 234.392 265.034 237.766 256.561 240.131L250.447 256.017C249.259 259.105 246.291 261.143 242.981 261.143H210.764C207.454 261.143 204.486 259.105 203.298 256.017L197.185 240.133C188.695 237.763 180.547 234.372 172.878 230.063L157.291 236.968C154.268 238.307 150.732 237.648 148.394 235.31L125.618 212.534C123.277 210.193 122.62 206.652 123.965 203.627L130.887 188.058C126.567 180.408 123.191 172.25 120.808 163.781L104.911 157.663C103.259 157.027 101.908 155.882 101.008 154.448H64.216V340.028H407.6V245.424L384.232 285.891L384.22 285.911C383.538 287.092 382.565 288.079 381.394 288.779L341.073 312.858C339.741 313.653 338.236 314.029 336.739 313.986C336.694 313.987 336.649 313.987 336.603 313.987H126.253C121.838 313.987 118.253 310.402 118.253 305.987C118.253 301.572 121.838 297.987 126.253 297.987H329.088L329.667 258.887C329.688 257.51 330.062 256.176 330.739 255.004L388.816 154.448H352.705ZM429.355 116.25L348.596 256.078L374.377 270.962L455.126 131.129L429.355 116.25ZM463.127 117.273L470.647 104.25C473.835 98.715 472.292 91.626 466.946 88.544L460.333 84.754C460.322 84.748 460.312 84.741 460.301 84.735C454.961 81.641 448.068 83.835 444.884 89.363L444.88 89.37L437.357 102.395L463.127 117.273ZM345.464 272.745L345.182 291.768L361.517 282.013L345.464 272.745ZM243.106 37.628L237.485 23H216.252L210.603 37.639C209.654 40.098 207.554 41.932 204.989 42.542C195.306 44.843 186.072 48.669 177.585 53.898C175.337 55.284 172.55 55.47 170.137 54.398L155.822 48.032L140.817 63.037L147.182 77.353C148.255 79.765 148.068 82.552 146.683 84.8C141.45 93.293 137.623 102.535 135.29 112.254C134.676 114.814 132.841 116.908 130.385 117.853L115.785 123.472V144.703L130.385 150.322C132.84 151.267 134.673 153.359 135.289 155.916C137.621 165.603 141.445 174.872 146.677 183.333C148.068 185.582 148.257 188.374 147.182 190.79L140.817 205.106L155.828 220.116L170.148 213.773C172.552 212.709 175.325 212.893 177.567 214.266C186.059 219.469 195.298 223.33 205.016 225.632C207.586 226.241 209.689 228.079 210.638 230.543L216.257 245.143H237.488L243.107 230.543C244.055 228.081 246.156 226.244 248.724 225.634C258.402 223.333 267.664 219.511 276.117 214.284C278.364 212.895 281.15 212.704 283.565 213.773L297.885 220.116L312.901 205.1L306.558 190.78C305.493 188.376 305.678 185.603 307.051 183.361C312.255 174.868 316.116 165.628 318.418 155.939C319.029 153.371 320.865 151.27 323.328 150.322L337.928 144.703V123.472L323.328 117.853C320.864 116.905 319.026 114.801 318.417 112.231C316.116 102.52 312.291 93.286 307.062 84.8C305.679 82.555 305.49 79.773 306.558 77.363L312.901 63.043L297.891 48.032L283.575 54.398C281.163 55.47 278.376 55.284 276.128 53.898C267.641 48.669 258.406 44.843 248.724 42.542C246.155 41.931 244.053 40.093 243.106 37.628ZM226.851 51.147C272.666 51.147 309.813 88.251 309.813 134.066C309.813 179.88 272.665 217.029 226.851 217.029C181.036 217.029 143.932 179.881 143.932 134.066C143.932 88.25 181.035 51.147 226.851 51.147ZM226.851 67.147C189.875 67.147 159.932 97.091 159.932 134.066C159.932 171.043 189.874 201.029 226.851 201.029C263.829 201.029 293.813 171.044 293.813 134.066C293.813 97.089 263.828 67.147 226.851 67.147ZM265.182 118.35C270.804 121.596 274.268 127.596 274.268 134.088C274.268 140.58 270.804 146.579 265.182 149.825L220.613 175.557C214.991 178.803 208.064 178.803 202.441 175.557C196.819 172.311 193.355 166.312 193.355 159.819V108.356C193.355 101.864 196.819 95.865 202.441 92.619C208.064 89.373 214.991 89.373 220.613 92.619L265.182 118.35ZM257.182 132.207L212.613 106.475C211.941 106.087 211.113 106.087 210.441 106.475C209.769 106.863 209.355 107.58 209.355 108.356V159.819C209.355 160.595 209.769 161.312 210.441 161.7C211.113 162.088 211.941 162.088 212.613 161.7L257.182 135.969C257.854 135.581 258.268 134.864 258.268 134.088C258.268 133.312 257.854 132.595 257.182 132.207ZM103.821 487H368.023V473.392C368.023 465.37 359.032 459.812 348.985 459.812H122.859C112.812 459.812 103.821 465.37 103.821 473.392V487Z" fill="#F4921F"/>
    </svg>
    