<svg width="120" height="120" viewBox="0 0 512 512" fill="none" xmlns="http://www.w3.org/2000/svg">
    <path fill-rule="evenodd" clip-rule="evenodd" d="M243.152 48.467C233.118 53.5962 224.956 61.758 219.826 71.792C214.697 61.7576 206.535 53.5957 196.5 48.467C206.534 43.3373 214.696 35.1752 219.825 25.141C222.373 30.1275 225.688 34.683 229.649 38.641C233.608 42.6031 238.164 45.9188 243.152 48.467ZM411.83 296.924C407.869 292.966 404.554 288.41 402.007 283.424C396.878 293.458 388.716 301.62 378.682 306.75C388.716 311.879 396.878 320.041 402.007 330.075C407.136 320.041 415.298 311.879 425.332 306.75C420.345 304.201 415.789 300.886 411.83 296.924ZM478.305 105.524C478.883 104.528 479.356 103.475 479.716 102.381C480.885 98.8157 480.795 94.9573 479.461 91.4503C478.128 87.9433 475.631 85 472.389 83.112C471.384 82.5323 470.32 82.0603 469.216 81.704L478.305 105.524ZM358.749 183.735L373.072 221.269C373.305 222.067 373.782 222.772 374.436 223.284C375.09 223.797 375.889 224.092 376.719 224.128C378.116 224.117 379.464 223.608 380.519 222.691C381.116 222.108 381.516 221.353 381.662 220.531C381.808 219.709 381.694 218.862 381.335 218.109L367.015 180.583L358.749 183.735ZM387.049 161.328C400.989 158.231 415.26 156.878 429.533 157.301C439.972 157.512 450.367 158.725 460.575 160.922L419.591 53.522C413.447 61.9575 406.506 69.7828 398.864 76.89C388.498 86.7197 376.951 95.2241 364.488 102.208L387.049 161.328ZM427.888 42.99C443.017 82.643 458.306 122.266 473.288 161.971C473.92 163.618 475.18 164.947 476.791 165.664C478.403 166.382 480.233 166.431 481.88 165.799C483.527 165.167 484.856 163.907 485.573 162.296C486.291 160.684 486.34 158.854 485.708 157.207L440.308 38.225C439.679 36.586 438.426 35.2635 436.823 34.548C435.622 34.0094 434.289 33.8391 432.991 34.0588C431.693 34.2785 430.49 34.8782 429.533 35.7821C428.577 36.6859 427.91 37.8533 427.617 39.1363C427.324 40.4194 427.418 41.7606 427.888 42.99ZM335.488 179.99C335.73 180.096 336.004 180.102 336.25 180.007L376.058 164.817L353.964 106.917L314.151 122.1C314.031 122.144 313.922 122.212 313.828 122.299C313.735 122.386 313.66 122.491 313.607 122.607C313.502 122.849 313.496 123.123 313.589 123.37L334.984 179.437C335.076 179.679 335.257 179.875 335.491 179.986L335.488 179.99ZM304.288 131.283L300.188 132.847C297.907 133.722 296.065 135.467 295.068 137.697C294.07 139.928 293.998 142.463 294.866 144.747L306.841 176.13C307.716 178.412 309.46 180.253 311.691 181.251C313.922 182.248 316.457 182.321 318.741 181.452L322.834 179.89L304.288 131.283ZM93.738 347.613C108.639 339.901 124.772 334.848 141.411 332.683L143.875 320.383C133.592 307.804 127.998 292.042 128.051 275.795V247.946C128.051 244.786 127.651 241.041 130.774 239.099C134.619 236.694 138.463 234.289 141.194 232.493C145.694 229.532 151.754 225.508 155.136 221.313C159.357 216.079 157.797 211.86 158.752 205.885C159.67 200.143 162.029 198.139 167.615 200.026C170.252 200.917 173.175 203.711 175.415 205.666C180.335 210.154 185.62 214.225 191.215 217.836C194.688 219.93 198.332 221.727 202.108 223.208C209.467 226.139 217.269 228.118 224.941 230.053C228.841 231.036 232.515 231.963 235.851 232.967C241.579 234.753 247.186 236.906 252.638 239.41C256.488 241.334 256.109 244.938 256.109 248.642V275.794C256.162 292.041 250.568 307.803 240.285 320.382L242.749 332.682C259.354 334.843 275.456 339.879 290.333 347.565C289.297 340.191 287.391 331.731 285.241 322.193C280.148 299.602 273.741 271.2 273.741 235.922C273.796 213.518 264.989 192.001 249.241 176.065C241.526 168.233 232.33 162.013 222.189 157.767C212.048 153.521 201.164 151.335 190.17 151.335C179.175 151.335 168.291 153.521 158.15 157.767C148.009 162.013 138.813 168.233 131.098 176.065C115.35 192.001 106.543 213.518 106.598 235.922C106.598 266.708 102.068 293.722 98.254 316.477C96.316 328.042 94.567 338.472 93.738 347.613ZM139.018 344.632C135.098 345.261 131.236 346.059 127.433 347.025C127.788 351.525 130.868 355.875 135.988 359.756L139.018 344.632ZM116.278 350.376C94.927 357.875 75.7914 370.597 60.614 387.382C38.2432 412.014 25.8504 444.096 25.853 477.371V486.859H358.3V477.371C358.303 444.096 345.91 412.014 323.539 387.382C308.362 370.596 289.226 357.874 267.874 350.376C265.974 360.393 257.35 369.104 244.38 375.363C215.25 389.419 168.901 389.419 139.771 375.363C126.8 369.1 118.181 360.393 116.278 350.376ZM256.721 347.025C252.921 346.062 249.06 345.264 245.137 344.631L248.166 359.756C253.287 355.876 256.367 351.521 256.721 347.025ZM230.048 314.672C239.485 303.927 244.657 290.095 244.585 275.794C244.585 266.846 244.611 257.324 244.585 248.439C240.664 246.726 236.648 245.241 232.556 243.991C229.426 243.049 225.891 242.157 222.142 241.212C213.897 239.305 205.789 236.853 197.869 233.872C193.485 232.155 189.254 230.072 185.22 227.645C179.671 224.118 174.42 220.141 169.52 215.756C168.987 220.445 167.1 224.878 164.089 228.512C159.758 233.885 153.229 238.303 147.489 242.077C144.584 243.988 142.006 245.625 139.516 247.189C139.516 254.431 139.566 268.154 139.566 275.789C139.5 290.602 145.054 304.889 155.107 315.769C159.807 320.905 165.516 325.015 171.876 327.845C178.237 330.674 185.113 332.161 192.074 332.213C208.361 332.218 218.91 325.646 230.048 314.672ZM237.638 365.827L230.475 330.068C219.631 338.91 206.067 343.739 192.075 343.739C178.083 343.739 164.519 338.91 153.675 330.068L146.512 365.827C158.36 371.137 174.366 374.385 192.073 374.385C209.78 374.385 225.791 371.137 237.638 365.827Z" fill="#F4921F"/>
    </svg>
    