<svg width="100" height="100" viewBox="0 0 512 512" fill="none" xmlns="http://www.w3.org/2000/svg">
    <path d="M181.5 58.8L193.2 88.1C211.3 81.6 230.4 78 249.8 77.4L249.5 45.8C225.9 46.4 203.8 50.8 181.5 58.8ZM109 102.4L130.9 125.2C146 111.7 163.3 100.5 182 92.5L170.3 63.1C148.1 72.6 126.9 86.1 109 102.4ZM58.4 170.3L87.3 183.1C96.2 164.7 108 148 122.3 133.4L100.4 110.7C83.2 128.1 69 148.3 58.4 170.3ZM40.6 304.1C42.6 315.2 45.5 326 49.1 336.4L78.7 325.3C72.2 306.1 68.7 285.7 68.6 265.3L37.1 264.4C37.1 278.2 38.3 291.2 40.6 304.1ZM37.3 252.5L69 253.4C70.2 232.9 74.8 212.9 82.4 194.1L53.5 181.3C44.7 202.9 38.3 229.1 37.3 252.5ZM459.1 182.1L430.2 194.9C437.7 213.5 442.1 233.3 443.3 253.5L474.9 252.6C473.6 228.3 468.3 204.6 459.1 182.1ZM413 111.9L391.1 134.6C405.1 149.1 416.7 165.8 425.4 184L454.3 171.2C443.7 148.8 430.1 129.6 413 111.9ZM261.8 77.3C282.2 77.9 302.2 81.8 321.1 88.8L332.8 59.5C310.1 51 286.1 46.4 261.6 45.8L261.8 77.3ZM343.8 63.9L332.1 93.2C350.6 101.4 367.6 112.5 382.5 126.2L404.4 103.4C386.5 86.9 366.2 73.7 343.8 63.9ZM276.1 244.8C258.4 227.1 228 239.7 228 264.7C228 289.7 258.4 302.3 276.1 284.6C287.1 273.6 287.1 255.8 276.1 244.8ZM272.6 228.2C280.6 232.8 287.3 239.3 292.2 247L329.3 185.5L272.6 228.2ZM96.4 270.7C93.1 270.7 90.4 268 90.4 264.7C90.4 261.4 93 258.7 96.4 258.7L109 258.6C109.9 236.1 115.8 214.9 125.7 196.2L114.8 190C111.9 188.4 110.9 184.7 112.5 181.9C114.1 179 117.8 178 120.7 179.6L131.6 185.9C143.3 167.5 158.9 151.9 177.3 140.2L171 129.4C169.4 126.5 170.3 122.9 173.2 121.2C176 119.5 179.7 120.5 181.4 123.4L187.7 134.3C206.5 124.4 227.7 118.5 250.1 117.6L250 105C250 101.7 252.7 99 256 99C259.3 99 262 101.6 262 105L262.1 117.6C284.6 118.5 305.8 124.4 324.5 134.3L330.7 123.4C332.3 120.5 336 119.5 338.8 121.1C341.7 122.7 342.7 126.4 341.1 129.3L334.8 140.2C353.2 151.9 368.8 167.5 380.5 185.9L391.3 179.6C394.2 177.9 397.8 178.9 399.5 181.8C401.2 184.7 400.2 188.3 397.3 190L386.4 196.3C396.3 215.1 402.2 236.2 403.1 258.7L415.7 258.6C419 258.6 421.7 261.3 421.7 264.6C421.7 267.9 419.1 270.6 415.7 270.6L397.2 270.7C393.8 270.7 391.2 268 391.2 264.7C391.2 190 330.6 129.4 255.9 129.4C181.2 129.4 120.6 190 120.6 264.7C120.6 268.3 117.8 270.9 113.7 270.7H96.4ZM140.1 356H110.4C102.7 356 96.4 362.3 96.4 370V400.4C96.4 408.1 102.7 414.4 110.4 414.4H140.1V356ZM127.5 426.5H115.4V459C115.4 462.7 117.9 466.3 121.4 466.3H127.5V426.5ZM229.7 370.9C227.3 368.3 224.3 366.3 220.9 365.1V408.1C236.2 402.7 240.9 382.8 229.7 370.9ZM208.9 385.3V318L152 353.4V417.2L208.9 452.6V385.3ZM246.9 426.4C244.5 424.2 244.3 420.4 246.6 418C248.8 415.6 252.6 415.4 255 417.7L264.2 426.1C266.6 428.3 266.8 432.1 264.6 434.6C262.4 437 258.6 437.2 256.1 434.9L246.9 426.4ZM255 355.7C252.6 357.9 248.8 357.8 246.6 355.4C244.4 353 244.5 349.2 246.9 346.9L256.1 338.4C258.5 336.2 262.3 336.3 264.6 338.8C266.8 341.2 266.7 345 264.2 347.2L255 355.7ZM261.6 392.6C258.3 392.6 255.6 389.9 255.6 386.6C255.6 383.3 258.3 380.6 261.6 380.6H276.5C279.8 380.6 282.5 383.3 282.5 386.6C282.5 389.9 279.8 392.6 276.5 392.6H261.6ZM413.8 327.9C410.5 327.9 407.8 325.2 407.8 321.9C407.8 318.6 410.5 315.9 413.8 315.9H456.6C459.9 315.9 462.6 318.6 462.6 321.9V364.7C462.6 368 459.9 370.7 456.6 370.7C453.3 370.7 450.6 368 450.6 364.7V336.4L377.1 409.9C374.7 412.3 370.9 412.3 368.6 409.9L345.8 387L294.2 438.6C291.8 440.9 288 440.9 285.7 438.6C283.4 436.2 283.4 432.4 285.7 430.1L341.5 374.3C343.9 371.9 347.7 371.9 350 374.3L372.8 397.1L442.1 327.9H413.8Z" fill="#F4921F"/>
    </svg>
    