<svg width="100" height="100" viewBox="0 0 512 512" fill="none" xmlns="http://www.w3.org/2000/svg">
    <g clip-path="url(#clip0_1_4)">
    <path d="M282.26 225.11H387.79C391.932 225.11 395.29 221.752 395.29 217.61C395.29 213.468 391.932 210.11 387.79 210.11H282.26C273.669 210.11 266.68 217.104 266.68 225.7V249.94C266.68 258.531 273.669 265.52 282.26 265.52H464.09C472.681 265.52 479.67 258.531 479.67 249.94V225.7C479.67 217.103 472.681 210.11 464.09 210.11H422.79C418.648 210.11 415.29 213.468 415.29 217.61C415.29 221.752 418.648 225.11 422.79 225.11H464.09C464.415 225.11 464.67 225.369 464.67 225.7V249.94C464.67 250.265 464.415 250.52 464.09 250.52H282.26C281.94 250.52 281.68 250.26 281.68 249.94V225.7C281.68 225.375 281.94 225.11 282.26 225.11Z" fill="#F4921F"/>
    <path d="M249.358 318.63C249.358 258.794 200.678 210.114 140.841 210.114C81.005 210.114 32.325 258.794 32.325 318.63C32.325 378.466 81.005 427.147 140.841 427.147C200.678 427.146 249.358 378.466 249.358 318.63ZM140.841 412.146C89.276 412.146 47.325 370.195 47.325 318.629C47.325 267.064 89.276 225.113 140.841 225.113C192.406 225.113 234.358 267.064 234.358 318.629C234.358 370.195 192.407 412.146 140.841 412.146Z" fill="#F4921F"/>
    <path d="M330.171 318.63C330.171 301.127 315.931 286.886 298.427 286.886C280.924 286.886 266.683 301.126 266.683 318.63C266.683 336.134 280.923 350.374 298.427 350.374C315.931 350.374 330.171 336.134 330.171 318.63ZM298.427 335.374C289.195 335.374 281.683 327.863 281.683 318.63C281.683 309.398 289.194 301.886 298.427 301.886C307.66 301.886 315.171 309.397 315.171 318.63C315.171 327.863 307.66 335.374 298.427 335.374Z" fill="#F4921F"/>
    <path d="M404.923 318.63C404.923 301.127 390.683 286.886 373.179 286.886C355.676 286.886 341.435 301.126 341.435 318.63C341.435 336.134 355.675 350.374 373.179 350.374C390.683 350.374 404.923 336.134 404.923 318.63ZM373.179 335.374C363.947 335.374 356.435 327.863 356.435 318.63C356.435 309.398 363.946 301.886 373.179 301.886C382.412 301.886 389.923 309.397 389.923 318.63C389.923 327.863 382.412 335.374 373.179 335.374Z" fill="#F4921F"/>
    <path d="M447.931 286.886C430.428 286.886 416.187 301.126 416.187 318.63C416.187 336.134 430.427 350.374 447.931 350.374C465.435 350.374 479.675 336.134 479.675 318.63C479.675 301.126 465.435 286.886 447.931 286.886ZM447.931 335.374C438.699 335.374 431.187 327.863 431.187 318.63C431.187 309.398 438.698 301.886 447.931 301.886C457.164 301.886 464.675 309.397 464.675 318.63C464.675 327.863 457.164 335.374 447.931 335.374Z" fill="#F4921F"/>
    <path d="M119.43 464.67H27.7C20.697 464.67 15 458.973 15 451.97V185.29C15 178.287 20.697 172.59 27.7 172.59H131.423C135.565 172.59 138.923 169.232 138.923 165.09C138.923 160.948 135.565 157.59 131.423 157.59H90.795L391.167 49.256C396.857 57.825 406.591 63.488 417.626 63.488C435.13 63.488 449.37 49.248 449.37 31.744C449.37 14.24 435.13 0 417.626 0C400.123 0 385.882 14.24 385.882 31.744C385.882 32.895 385.947 34.03 386.067 35.149L46.583 157.59H27.7C12.426 157.59 0 170.016 0 185.29V451.97C0 467.243 12.426 479.67 27.7 479.67H30.304V494.399C30.304 504.105 38.2 512.001 47.906 512.001H92.353C102.059 512.001 109.955 504.105 109.955 494.399V479.67H119.43C123.572 479.67 126.93 476.312 126.93 472.17C126.93 468.028 123.572 464.67 119.43 464.67ZM417.626 15C426.859 15 434.37 22.511 434.37 31.744C434.37 40.976 426.859 48.488 417.626 48.488C408.394 48.488 400.882 40.977 400.882 31.744C400.882 22.511 408.394 15 417.626 15ZM94.955 494.398C94.955 495.833 93.788 497 92.353 497H47.907C46.472 497 45.305 495.833 45.305 494.398V479.67H94.955V494.398Z" fill="#F4921F"/>
    <path d="M484.3 157.59H449.37V142.862C449.37 133.156 441.474 125.26 431.768 125.26H387.321C377.615 125.26 369.719 133.156 369.719 142.862V157.59H352.394V142.862C352.394 133.156 344.498 125.26 334.792 125.26H290.345C280.639 125.26 272.743 133.156 272.743 142.862V157.59H166.423C162.281 157.59 158.923 160.948 158.923 165.09C158.923 169.232 162.281 172.59 166.423 172.59H484.3C491.303 172.59 497 178.287 497 185.29V451.97C497 458.972 491.303 464.67 484.3 464.67H154.43C150.288 464.67 146.93 468.028 146.93 472.17C146.93 476.312 150.288 479.67 154.43 479.67H402.045V494.399C402.045 504.105 409.941 512.001 419.647 512.001H464.094C473.8 512.001 481.696 504.105 481.696 494.399V479.67H484.3C499.574 479.67 512 467.244 512 451.97V185.29C512 170.016 499.574 157.59 484.3 157.59ZM384.72 142.862C384.72 141.427 385.887 140.26 387.322 140.26H431.769C433.204 140.26 434.371 141.427 434.371 142.862V157.59H384.721V142.862H384.72ZM287.744 142.862C287.744 141.427 288.911 140.26 290.346 140.26H334.793C336.228 140.26 337.395 141.427 337.395 142.862V157.59H287.745V142.862H287.744ZM466.695 494.398C466.695 495.833 465.528 497 464.093 497H419.646C418.211 497 417.044 495.833 417.044 494.398V479.67H466.694V494.398H466.695Z" fill="#F4921F"/>
    <path d="M140.841 279.233C145.304 279.233 148.922 275.615 148.922 271.152C148.922 266.689 145.304 263.071 140.841 263.071C136.378 263.071 132.76 266.689 132.76 271.152C132.76 275.615 136.378 279.233 140.841 279.233Z" fill="#F4921F"/>
    <path d="M173.167 279.233C177.63 279.233 181.248 275.615 181.248 271.152C181.248 266.689 177.63 263.071 173.167 263.071C168.704 263.071 165.086 266.689 165.086 271.152C165.086 275.615 168.704 279.233 173.167 279.233Z" fill="#F4921F"/>
    <path d="M108.516 279.233C112.979 279.233 116.597 275.615 116.597 271.152C116.597 266.689 112.979 263.071 108.516 263.071C104.053 263.071 100.435 266.689 100.435 271.152C100.435 275.615 104.053 279.233 108.516 279.233Z" fill="#F4921F"/>
    <path d="M124.679 310.885C129.142 310.885 132.76 307.267 132.76 302.804C132.76 298.341 129.142 294.723 124.679 294.723C120.216 294.723 116.598 298.341 116.598 302.804C116.598 307.267 120.216 310.885 124.679 310.885Z" fill="#F4921F"/>
    <path d="M157.004 310.885C161.467 310.885 165.085 307.267 165.085 302.804C165.085 298.341 161.467 294.723 157.004 294.723C152.541 294.723 148.923 298.341 148.923 302.804C148.923 307.267 152.541 310.885 157.004 310.885Z" fill="#F4921F"/>
    <path d="M189.329 310.885C193.792 310.885 197.41 307.267 197.41 302.804C197.41 298.341 193.792 294.723 189.329 294.723C184.866 294.723 181.248 298.341 181.248 302.804C181.248 307.267 184.866 310.885 189.329 310.885Z" fill="#F4921F"/>
    <path d="M92.354 310.885C96.817 310.885 100.435 307.267 100.435 302.804C100.435 298.341 96.817 294.723 92.354 294.723C87.891 294.723 84.273 298.341 84.273 302.804C84.273 307.267 87.891 310.885 92.354 310.885Z" fill="#F4921F"/>
    <path d="M140.841 374.189C145.304 374.189 148.922 370.571 148.922 366.108C148.922 361.645 145.304 358.027 140.841 358.027C136.378 358.027 132.76 361.645 132.76 366.108C132.76 370.571 136.378 374.189 140.841 374.189Z" fill="#F4921F"/>
    <path d="M108.516 374.189C112.979 374.189 116.597 370.571 116.597 366.108C116.597 361.645 112.979 358.027 108.516 358.027C104.053 358.027 100.435 361.645 100.435 366.108C100.435 370.571 104.053 374.189 108.516 374.189Z" fill="#F4921F"/>
    <path d="M173.167 374.189C177.63 374.189 181.248 370.571 181.248 366.108C181.248 361.645 177.63 358.027 173.167 358.027C168.704 358.027 165.086 361.645 165.086 366.108C165.086 370.571 168.704 374.189 173.167 374.189Z" fill="#F4921F"/>
    <path d="M157.004 342.537C161.467 342.537 165.085 338.919 165.085 334.456C165.085 329.993 161.467 326.375 157.004 326.375C152.541 326.375 148.923 329.993 148.923 334.456C148.923 338.919 152.541 342.537 157.004 342.537Z" fill="#F4921F"/>
    <path d="M124.679 342.537C129.142 342.537 132.76 338.919 132.76 334.456C132.76 329.993 129.142 326.375 124.679 326.375C120.216 326.375 116.598 329.993 116.598 334.456C116.598 338.919 120.216 342.537 124.679 342.537Z" fill="#F4921F"/>
    <path d="M92.354 342.537C96.817 342.537 100.435 338.919 100.435 334.456C100.435 329.993 96.817 326.375 92.354 326.375C87.891 326.375 84.273 329.993 84.273 334.456C84.273 338.919 87.891 342.537 92.354 342.537Z" fill="#F4921F"/>
    <path d="M189.329 342.537C193.792 342.537 197.41 338.919 197.41 334.456C197.41 329.993 193.792 326.375 189.329 326.375C184.866 326.375 181.248 329.993 181.248 334.456C181.248 338.919 184.866 342.537 189.329 342.537Z" fill="#F4921F"/>
    <path d="M266.683 409.545V419.647C266.683 423.789 270.041 427.147 274.183 427.147C278.325 427.147 281.683 423.789 281.683 419.647V409.545C281.683 405.403 278.325 402.045 274.183 402.045C270.041 402.045 266.683 405.403 266.683 409.545Z" fill="#F4921F"/>
    <path d="M299.682 409.545V419.647C299.682 423.789 303.04 427.147 307.182 427.147C311.324 427.147 314.682 423.789 314.682 419.647V409.545C314.682 405.403 311.324 402.045 307.182 402.045C303.04 402.045 299.682 405.403 299.682 409.545Z" fill="#F4921F"/>
    <path d="M332.68 409.545V419.647C332.68 423.789 336.038 427.147 340.18 427.147C344.322 427.147 347.68 423.789 347.68 419.647V409.545C347.68 405.403 344.322 402.045 340.18 402.045C336.038 402.045 332.68 405.403 332.68 409.545Z" fill="#F4921F"/>
    <path d="M365.679 409.545V419.647C365.679 423.789 369.037 427.147 373.179 427.147C377.321 427.147 380.679 423.789 380.679 419.647V409.545C380.679 405.403 377.321 402.045 373.179 402.045C369.037 402.045 365.679 405.403 365.679 409.545Z" fill="#F4921F"/>
    <path d="M406.178 427.146C410.32 427.146 413.678 423.788 413.678 419.646V409.544C413.678 405.402 410.32 402.044 406.178 402.044C402.036 402.044 398.678 405.402 398.678 409.544V419.646C398.678 423.789 402.036 427.146 406.178 427.146Z" fill="#F4921F"/>
    <path d="M431.676 409.545V419.647C431.676 423.789 435.034 427.147 439.176 427.147C443.318 427.147 446.676 423.789 446.676 419.647V409.545C446.676 405.403 443.318 402.045 439.176 402.045C435.034 402.045 431.676 405.403 431.676 409.545Z" fill="#F4921F"/>
    <path d="M464.675 409.545V419.647C464.675 423.789 468.033 427.147 472.175 427.147C476.317 427.147 479.675 423.789 479.675 419.647V409.545C479.675 405.403 476.317 402.045 472.175 402.045C468.033 402.045 464.675 405.403 464.675 409.545Z" fill="#F4921F"/>
    </g>
    <defs>
    <clipPath id="clip0_1_4">
    <rect width="512" height="512" fill="white"/>
    </clipPath>
    </defs>
    </svg>
    