<svg width="100" height="100" viewBox="0 0 512 512" fill="none" xmlns="http://www.w3.org/2000/svg">
    <path d="M413.55 191.847C413.55 187.903 410.353 184.706 406.409 184.706C402.465 184.706 399.268 187.903 399.268 191.847C399.268 201.379 407.888 209.157 418.638 209.534V213.241C418.638 217.185 421.835 220.382 425.779 220.382C429.723 220.382 432.92 217.185 432.92 213.241V209.279C443.885 207.66 452.261 199.346 452.261 189.36C452.261 179.359 443.884 171.034 432.92 169.413V157.271C435.985 157.559 437.98 159.392 437.98 160.652C437.98 164.596 441.177 167.793 445.121 167.793C449.065 167.793 452.262 164.596 452.262 160.652C452.262 151.12 443.655 143.343 432.921 142.965V139.258C432.921 135.314 429.724 132.117 425.78 132.117C421.836 132.117 418.639 135.314 418.639 139.258V143.216C407.66 144.827 399.269 153.158 399.269 163.168C399.269 171.132 403.285 177.285 410.579 180.493C412.916 181.521 415.544 182.256 418.64 182.733V195.232C415.515 194.951 413.55 193.139 413.55 191.847ZM437.98 189.36C437.98 191.402 436.022 193.608 432.92 194.659V184.037C436.022 185.092 437.98 187.309 437.98 189.36ZM413.55 163.167C413.55 161.109 415.52 158.885 418.639 157.833V168.204C413.552 166.956 413.55 164.704 413.55 163.167ZM473.714 19.103H38.287C17.451 19.103 0.5 36.056 0.5 56.891V254.266C0.5 258.21 3.697 261.407 7.641 261.407C11.585 261.407 14.782 258.21 14.782 254.266V97.019H497.218V455.11C497.218 468.07 486.674 478.614 473.714 478.614H38.287C25.326 478.614 14.782 468.07 14.782 455.11V284.361C14.782 280.417 11.585 277.22 7.641 277.22C3.697 277.22 0.5 280.417 0.5 284.361V455.11C0.5 475.945 17.451 492.897 38.287 492.897H473.714C494.55 492.897 511.5 475.946 511.5 455.11V56.891C511.5 36.056 494.549 19.103 473.714 19.103ZM14.782 82.736V56.891C14.782 43.93 25.326 33.386 38.287 33.386H473.714C486.674 33.386 497.218 43.93 497.218 56.891V82.736H14.782ZM74.599 58.076C74.599 64.452 69.398 69.641 63.006 69.641C56.629 69.641 51.441 64.453 51.441 58.076C51.441 51.684 56.629 46.482 63.006 46.482C69.398 46.483 74.599 51.684 74.599 58.076ZM115.132 58.076C115.132 64.452 109.944 69.641 103.568 69.641C97.176 69.641 91.975 64.453 91.975 58.076C91.975 51.684 97.176 46.482 103.568 46.482C109.944 46.483 115.132 51.684 115.132 58.076ZM155.694 58.076C155.694 64.452 150.493 69.641 144.101 69.641C137.725 69.641 132.537 64.453 132.537 58.076C132.537 51.684 137.725 46.482 144.101 46.482C150.493 46.483 155.694 51.684 155.694 58.076ZM86.481 394.165V436.404H74.194V210.61C74.194 206.666 70.997 203.469 67.053 203.469C63.109 203.469 59.912 206.666 59.912 210.61V443.545C59.912 447.489 63.109 450.686 67.053 450.686H93.05C93.239 450.701 93.429 450.715 93.622 450.715H125.424C125.617 450.715 125.807 450.701 125.996 450.686H151.652C151.841 450.701 152.031 450.715 152.224 450.715H183.997C184.19 450.715 184.38 450.701 184.569 450.686H210.225C210.414 450.701 210.604 450.715 210.797 450.715H242.6C242.793 450.715 242.983 450.701 243.172 450.686H268.828C269.017 450.701 269.207 450.715 269.4 450.715H301.202C301.395 450.715 301.585 450.701 301.774 450.686H327.43C327.619 450.701 327.809 450.715 328.002 450.715H359.804C359.997 450.715 360.187 450.701 360.376 450.686H386.032C386.221 450.701 386.411 450.715 386.604 450.715H418.377C418.57 450.715 418.76 450.701 418.949 450.686H437.776C441.72 450.686 444.917 447.489 444.917 443.545C444.917 439.601 441.72 436.404 437.776 436.404H425.518V238.821C425.605 238.822 425.691 238.827 425.778 238.827C460.276 238.827 488.341 210.76 488.341 176.263C488.341 141.749 460.275 113.671 425.778 113.671C391.265 113.671 363.186 141.749 363.186 176.263C363.186 196.301 372.67 214.156 387.375 225.614H386.603C382.659 225.614 379.462 228.811 379.462 232.755V436.403H366.943V289.363C366.943 285.419 363.746 282.222 359.802 282.222H328C324.056 282.222 320.859 285.419 320.859 289.363V436.404H308.34V351.319C308.34 347.375 305.143 344.178 301.199 344.178H269.4C265.456 344.178 262.259 347.375 262.259 351.319V436.404H249.741V351.319C249.741 347.375 246.544 344.178 242.6 344.178H210.797C206.853 344.178 203.656 347.375 203.656 351.319V436.404H191.138V351.319C191.138 347.375 187.941 344.178 183.997 344.178H152.224C148.28 344.178 145.083 347.375 145.083 351.319V436.404H132.564V394.165C132.564 390.221 129.367 387.024 125.423 387.024H93.622C89.679 387.024 86.481 390.221 86.481 394.165ZM377.469 176.264C377.469 149.626 399.141 127.955 425.779 127.955C452.401 127.955 474.06 149.626 474.06 176.264C474.06 202.886 452.401 224.545 425.779 224.545C399.141 224.545 377.469 202.886 377.469 176.264ZM393.746 239.898H411.237V436.404H393.746V239.898ZM335.144 296.505H352.664V436.404H335.144V296.505ZM276.541 358.46H294.061V436.404H276.541V358.46ZM217.939 358.46H235.46V436.404H217.939V358.46ZM159.365 358.46H176.856V436.404H159.365V358.46ZM118.283 401.307V436.404H100.763V401.307H118.283ZM214.722 310.865C216.048 311.406 217.435 311.669 218.81 311.669C221.623 311.669 224.382 310.567 226.456 308.494L266.517 268.461H287.267C300.387 268.461 311.061 257.787 311.061 244.667V151.805C311.061 138.685 300.387 128.01 287.267 128.01H123.66C110.54 128.01 99.866 138.684 99.866 151.805V244.667C99.866 257.786 110.54 268.461 123.66 268.461H208.022V300.87C208.022 305.245 210.632 309.16 214.722 310.865ZM123.66 254.178C118.415 254.178 114.148 249.912 114.148 244.667V151.805C114.148 146.56 118.415 142.293 123.66 142.293H287.267C292.512 142.293 296.779 146.56 296.779 151.805V244.667C296.779 249.912 292.512 254.178 287.267 254.178H263.56C261.667 254.178 259.851 254.93 258.512 256.269L222.304 292.452V261.32C222.304 257.376 219.107 254.179 215.163 254.179H123.66V254.178ZM230.284 210.871H183.49L149.519 246.34C148.117 247.804 146.24 248.542 144.361 248.542C142.585 248.542 140.807 247.884 139.423 246.558C136.574 243.83 136.477 239.309 139.205 236.461L175.285 198.79C176.632 197.384 178.495 196.588 180.442 196.588H227.159L254.227 167.281L241.795 170.128C237.952 171.005 234.121 168.606 233.24 164.761C232.36 160.916 234.763 157.087 238.607 156.206L268.529 149.354C272.373 148.478 276.201 150.874 277.083 154.718L283.732 183.687C284.614 187.531 282.214 191.362 278.369 192.245C277.832 192.369 277.294 192.427 276.765 192.427C273.511 192.427 270.57 190.189 269.811 186.882L266.975 174.526L235.529 208.575C234.177 210.038 232.276 210.871 230.284 210.871ZM37.42 135.152C37.42 131.208 40.617 128.011 44.561 128.011H72.922C76.866 128.011 80.063 131.208 80.063 135.152C80.063 139.096 76.866 142.293 72.922 142.293H44.56C40.617 142.294 37.42 139.097 37.42 135.152ZM37.42 155.015C37.42 151.071 40.617 147.874 44.561 147.874H72.922C76.866 147.874 80.063 151.071 80.063 155.015C80.063 158.959 76.866 162.156 72.922 162.156H44.56C40.617 162.156 37.42 158.959 37.42 155.015ZM37.42 174.876C37.42 170.932 40.617 167.735 44.561 167.735H72.922C76.866 167.735 80.063 170.932 80.063 174.876C80.063 178.82 76.866 182.017 72.922 182.017H44.56C40.617 182.018 37.42 178.82 37.42 174.876Z" fill="#F4921F"/>
    </svg>
    