<svg width="100" height="100" viewBox="0 0 512 512" fill="none" xmlns="http://www.w3.org/2000/svg">
    <path d="M239 165.75V150.75C239 135.862 227.388 124 212.5 124H204V193H212.5C227.388 193 239 180.638 239 165.75Z" fill="#F4921F"/>
    <path d="M165.373 228.503L195.056 252H282V90H77V227H160.375C162.191 227 163.954 227.368 165.373 228.503ZM188 115.75C188 111.331 192.081 108 196.5 108H212.5C236.21 108 255 127.04 255 150.75V165.75C255 189.46 236.21 209 212.5 209H196.5C192.081 209 188 205.169 188 200.75V115.75ZM154 201V175H119V201C119 205.419 115.418 209 111 209C106.581 209 103 205.419 103 201V166.75C103 166.62 103.026 166.492 103.032 166.363C103.039 166.274 103.044 166.185 103.054 166.097C103.108 165.432 103.219 164.774 103.437 164.142L120.937 113.392C122.05 110.165 125.087 108 128.5 108H145.5C148.965 108 152.037 110.231 153.108 113.526L169.608 164.276C169.804 164.879 169.903 165.505 169.952 166.135C169.958 166.19 169.96 166.247 169.965 166.302C169.973 166.452 170 166.599 170 166.749V201C170 205.419 166.419 209 162 209C157.581 209 154 205.419 154 201Z" fill="#F4921F"/>
    <path d="M134.204 124L122.135 159H151.068L139.689 124H134.204Z" fill="#F4921F"/>
    <path d="M298 192H350V303H298V192Z" fill="#F4921F"/>
    <path d="M450.806 192H366V303H506.556L450.806 192Z" fill="#F4921F"/>
    <path d="M96.625 374.5C83.46 374.5 72.75 385.21 72.75 398.375C72.75 411.54 83.46 422.25 96.625 422.25C109.79 422.25 120.5 411.54 120.5 398.375C120.5 385.21 109.79 374.5 96.625 374.5Z" fill="#F4921F"/>
    <path d="M282 268H192.25C190.434 268 188.671 267.632 187.252 266.497L157.569 243H77V303H282V268Z" fill="#F4921F"/>
    <path d="M423.875 374.5C410.71 374.5 400 385.21 400 398.375C400 411.54 410.71 422.25 423.875 422.25C437.04 422.25 447.75 411.54 447.75 398.375C447.75 385.21 437.04 374.5 423.875 374.5Z" fill="#F4921F"/>
    <path d="M0 192H61V303H0V192Z" fill="#F4921F"/>
    <path d="M0 319V390H57.557C61.271 372 77.377 358.125 96.625 358.125C115.873 358.125 131.979 372 135.693 390H384.807C388.521 372 404.627 358.125 423.875 358.125C443.123 358.125 459.229 372 462.943 390H511V319H0Z" fill="#F4921F"/>
    </svg>
    