<svg width="135" height="29" viewBox="0 0 135 29" fill="none" xmlns="http://www.w3.org/2000/svg">
    <path d="M6.9998 7.9C7.8998 9 8.7998 10.1 9.6998 11.3C13.1998 15.6 16.5998 19.9 20.0998 24.2C20.1998 24.3 20.2998 24.4 20.4998 24.4C22.0998 24.4 23.6998 24.5 25.2998 24.6H25.3998C25.3998 24.6 25.3998 24.6 25.3998 24.5C24.3998 23.4 23.2998 22.2 22.2998 21.1C19.0998 17.6 15.7998 14.1 12.5998 10.6C11.3998 9.3 10.1998 8.1 8.9998 6.8C8.7998 6.6 8.6998 6.4 8.4998 6.2C9.5998 7.2 10.6998 8.2 11.7998 9.2C15.9998 13.1 20.3998 17 24.6998 21C26.1998 22.3 27.5998 23.7 29.0998 25C29.2998 25.1 29.3998 25.3 29.5998 25.3C29.9998 25.4 30.3998 25.6 30.7998 25.9C31.3998 26.4 31.3998 27 30.7998 27.5C30.0998 28 29.2998 28.2 28.3998 28.4C25.6998 28.9 22.9998 29 20.2998 29C17.8998 29 15.4998 28.9 13.0998 28.4C12.4998 28.3 11.8998 28.1 11.2998 27.9C10.6998 27.6 10.2998 27.2 10.0998 26.5C8.4998 21.4 6.9998 16.4 5.3998 11.3C5.1998 10.7 4.9998 10 4.7998 9.3C4.9998 9.3 4.9998 9.4 4.9998 9.5C6.9998 13.8 8.9998 18.1 10.9998 22.4C11.3998 23.2 11.7998 24.1 12.1998 24.9C12.2998 25.1 12.3998 25.2 12.5998 25.1C13.9998 24.7 15.4998 24.6 16.8998 24.5C17.1998 24.5 17.1998 24.4 17.0998 24.2C14.3998 19.8 11.6998 15.5 8.9998 11.1C8.1998 10.1 7.5998 9 6.9998 7.9ZM11.3998 26.6C11.4998 26.7 11.6998 26.8 11.7998 26.8C12.2998 27 12.7998 27.1 13.2998 27.2C15.1998 27.6 17.0998 27.7 18.9998 27.8C22.0998 27.9 25.1998 27.8 28.1998 27.2C28.7998 27.1 29.4998 26.9 30.0998 26.6C29.9998 26.5 29.7998 26.4 29.6998 26.4C29.1998 26.2 28.6998 26.1 28.1998 26C26.2998 25.6 24.3998 25.5 22.4998 25.4C19.3998 25.3 16.2998 25.4 13.2998 26C12.5998 26.2 11.9998 26.3 11.3998 26.6Z" fill="#F18E21"/>
    <path d="M7.59987 2.8C7.59987 3.6 7.59987 3.6 6.89987 3.5C6.59987 3.5 6.39987 3.5 6.09987 3.4C5.59987 3.3 5.19987 3.4 4.79987 3.7C4.39987 4 3.99987 4.2 3.59987 4.5C3.39987 4.6 3.29987 4.7 3.29987 5C3.19987 5.5 2.99987 6 2.89987 6.5C2.89987 6.7 2.79987 6.7 2.59987 6.7C1.69987 6.5 1.69987 6.5 1.89987 5.6V5.5C1.99987 5.1 2.29987 4.6 2.19987 4.2C2.19987 3.8 1.79987 3.4 1.49987 3C0.699871 1.8 0.79987 1.4 1.99987 0.6C2.39987 0.3 2.69987 0 3.29987 0C3.79987 0 4.09987 0.2 4.39987 0.6C4.59987 1 4.89987 1.5 5.19987 1.9C5.29987 2.1 5.49987 2.2 5.69987 2.2C6.19987 2.2 6.79987 2.3 7.29987 2.4C7.59987 2.4 7.79987 2.4 7.59987 2.8Z" fill="#F18E21"/>
    <path d="M4.1001 7.1C4.1001 6.5 4.2001 6 4.2001 5.4C4.2001 5.2 5.3001 4.4 5.5001 4.5H5.6001C6.1001 4.7 6.6001 4.8 7.2001 5C6.2001 5.7 5.2001 6.4 4.1001 7.1Z" fill="#F18E21"/>
    <path d="M6.8999 7.9C6.9999 7.8 6.8999 7.8 6.8999 7.9Z" fill="#F18E21"/>
    <path d="M50.2 18.7L48.4 19.1L47.2 15.5L40.1 15.4L38.3 20.2L34.5 17.6L42 2.3L44.8 2L50.2 18.7ZM39.3 12.7L38.9 12.2C38.4 13 38 13.8 37.6 14.7C37.2 15.6 36.9 16.5 36.6 17.5L37.5 17.9C37.6 17 37.8 16.1 38.1 15.2C38.5 14.4 38.9 13.5 39.3 12.7ZM46.7 13.8L46.1 12L40.8 13.3L40.5 14.1L46.7 13.8ZM45.7 10.8L43.8 4.1L41.2 11.8L45.7 10.8Z" fill="#F28E20"/>
    <path d="M66.4002 18.7L64.6002 19.1L63.4002 15.5L56.3002 15.4L54.5002 20.2L50.7002 17.6L58.2002 2.2L61.0002 2L66.4002 18.7ZM55.5002 12.7L55.1002 12.2C54.6002 13 54.2002 13.8 53.8002 14.7C53.4002 15.6 53.1002 16.5 52.8002 17.5L53.7002 17.9C53.8002 17 54.0002 16.1 54.3002 15.2C54.7002 14.4 55.1002 13.5 55.5002 12.7ZM62.9002 13.8L62.3002 12L57.0002 13.3L56.7002 14.1L62.9002 13.8ZM61.9002 10.8L60.0002 4.1L57.4002 11.8L61.9002 10.8Z" fill="#F28E20"/>
    <path d="M90.3 2.8L88.4 5.6L86.8 5L82.8 18.8L82.1 19L78 8.7L72.9 19.6L72.5 17.7L71.1 18.2L70.9 17.3L72.3 16.8L71.9 15.2L70.5 15.6L70.3 14.6L71.7 14.2L71.3 12.4L70.1 13L69.7 12L71.2 11.4L70.8 9.6L69.1 10L68.9 9.1L70.7 8.6L70.3 6.7L69 7.3L68.7 6.5L70.1 6L69.7 3.8L68.4 4.2L68 3.2L71.3 2L74.8 12.4L79.8 1.6L83.6 11L86.6 1.5L90.3 2.8ZM82.9 12.9L79.4 4.6L78.7 5.9L82.3 14.9L82.9 12.9Z" fill="#F28E20"/>
    <path d="M104.4 18.7L102.6 19.1L101.4 15.5L94.3002 15.4L92.5002 20.2L88.7002 17.6L96.2002 2.2L99.0002 2L104.4 18.7ZM93.5002 12.7L93.1002 12.2C92.6002 13 92.2002 13.8 91.8002 14.7C91.4002 15.6 91.1002 16.5 90.8002 17.5L91.7002 17.9C91.8002 17 92.0002 16.1 92.3002 15.2C92.8002 14.4 93.1002 13.5 93.5002 12.7ZM100.9 13.8L100.3 12L95.0002 13.4L94.7002 14.2L100.9 13.8ZM99.9002 10.8L98.0002 4.1L95.4002 11.8L99.9002 10.8Z" fill="#F28E20"/>
    <path d="M119.5 17.4C119.2 18 118.9 18.5 118.5 18.8C118.1 19.1 117.7 19.3 117.2 19.3C116.6 19.3 116.1 19.1 115.5 18.7C114.9 18.3 114.4 17.8 113.8 17L110.4 12.6L109.2 12.9L108.9 19.2L107 19.5L106.3 1.8H107.3L107.4 3.1L109.3 3.2L109.5 2L110.5 2.1L110.4 3.4L111.8 3.7L112.4 2.4L113.3 2.8L112.7 4C113 4.1 113.3 4.3 113.6 4.5C113.8 4.7 114 4.9 114.2 5.2L115.2 4.5L115.9 5.2L114.6 6C114.7 6.2 114.8 6.5 114.8 6.8C114.8 7.1 114.8 7.5 114.8 7.8L116.2 8.3L115.8 9.2L114.5 9C114.4 9.3 114.3 9.5 114.2 9.8C114.1 10.1 113.9 10.3 113.7 10.6L114.7 11.5L114.1 12.3L113 11.5L112.5 11.8L115.7 16.9C115.8 17.1 115.9 17.2 116.1 17.4C116.2 17.6 116.4 17.7 116.6 17.8C116.8 18 117 18.1 117.2 18.2C117.4 18.3 117.6 18.3 117.8 18.3C118.1 18.3 118.3 18.2 118.6 18.1C118.8 18 119.1 17.7 119.3 17.4H119.5ZM112.5 10.2L111.3 4.9C111.1 4.8 110.9 4.7 110.6 4.7C110.4 4.6 110.1 4.6 109.8 4.5L109.3 11.9C110 11.7 110.6 11.5 111.1 11.2C111.6 10.9 112.1 10.6 112.5 10.2Z" fill="#F28E20"/>
    <path d="M134.2 18.7L132.4 19.1L131.2 15.5L124.1 15.4L122.3 20.2L118.5 17.6L126 2.3L128.8 2.1L134.2 18.7ZM123.3 12.7L122.9 12.2C122.4 13 122 13.8 121.6 14.7C121.2 15.6 120.9 16.5 120.6 17.5L121.5 17.9C121.6 17 121.8 16.1 122.1 15.2C122.5 14.4 122.9 13.5 123.3 12.7ZM130.7 13.8L130.1 12.1L124.7 13.4L124.4 14.2L130.7 13.8ZM129.7 10.8L127.8 4.1L125.2 11.8L129.7 10.8Z" fill="#F28E20"/>
    <path d="M58.8998 23.9V25.5H61.0998V26H58.8998V27.7H58.2998V23.4H61.2998V23.9H58.8998Z" fill="white"/>
    <path d="M69.6996 23.4H69.0996V27.7H69.6996V23.4Z" fill="white"/>
    <path d="M78 23.4H78.6V27.2H81V27.7H78V23.4Z" fill="white"/>
    <path d="M92.5996 27.7V24.6L91.0996 27.2H90.7996L89.1996 24.6V27.7H88.5996V23.4H89.0996L90.8996 26.4L92.6996 23.4H93.1996V27.7H92.5996Z" fill="white"/>
    <path d="M101.8 27.6C101.5 27.5 101.3 27.4 101.1 27.2L101.3 26.7C101.5 26.8 101.7 27 101.9 27.1C102.2 27.2 102.4 27.2 102.7 27.2C103.1 27.2 103.3 27.1 103.5 27C103.7 26.9 103.8 26.7 103.8 26.5C103.8 26.4 103.8 26.2 103.7 26.1C103.6 26 103.5 25.9 103.3 25.9C103.2 25.8 103 25.8 102.7 25.7C102.4 25.6 102.1 25.5 101.9 25.5C101.7 25.4 101.5 25.3 101.4 25.1C101.3 24.9 101.2 24.7 101.2 24.4C101.2 24.2 101.3 24 101.4 23.8C101.5 23.6 101.7 23.5 102 23.4C102.2 23.3 102.6 23.2 102.9 23.2C103.2 23.2 103.4 23.2 103.7 23.3C103.9 23.4 104.2 23.5 104.3 23.6L104.1 24.1C103.9 24 103.7 23.9 103.5 23.8C103.3 23.7 103.1 23.7 102.9 23.7C102.5 23.7 102.3 23.8 102.1 23.9C101.9 24 101.8 24.2 101.8 24.4C101.8 24.5 101.8 24.7 101.9 24.8C102 24.9 102.1 25 102.3 25C102.4 25.1 102.6 25.1 102.9 25.2C103.2 25.3 103.5 25.4 103.7 25.4C103.9 25.5 104.1 25.6 104.2 25.8C104.3 26 104.4 26.2 104.4 26.5C104.4 26.7 104.3 26.9 104.2 27.1C104.1 27.3 103.9 27.4 103.6 27.5C103.3 27.6 103 27.7 102.7 27.7C102.4 27.8 102.1 27.7 101.8 27.6Z" fill="white"/>
    </svg>
    