<svg width="134" height="29" viewBox="0 0 134 29" fill="none" xmlns="http://www.w3.org/2000/svg">
<path d="M5.9998 7.9C6.8998 9 7.7998 10.1 8.6998 11.3C12.1998 15.6 15.5998 19.9 19.0998 24.2C19.1998 24.3 19.2998 24.4 19.4998 24.4C21.0998 24.4 22.6998 24.5 24.2998 24.6H24.3998C24.3998 24.6 24.3998 24.6 24.3998 24.5C23.3998 23.4 22.2998 22.2 21.2998 21.1C18.0998 17.6 14.7998 14.1 11.5998 10.6C10.3998 9.3 9.1998 8.1 7.9998 6.8C7.7998 6.6 7.6998 6.4 7.4998 6.2C8.5998 7.2 9.6998 8.2 10.7998 9.2C14.9998 13.1 19.3998 17 23.6998 21C25.1998 22.3 26.5998 23.7 28.0998 25C28.2998 25.1 28.3998 25.3 28.5998 25.3C28.9998 25.4 29.3998 25.6 29.7998 25.9C30.3998 26.4 30.3998 27 29.7998 27.5C29.0998 28 28.2998 28.2 27.3998 28.4C24.6998 28.9 21.9998 29 19.2998 29C16.8998 29 14.4998 28.9 12.0998 28.4C11.4998 28.3 10.8998 28.1 10.2998 27.9C9.6998 27.6 9.2998 27.2 9.0998 26.5C7.4998 21.4 5.9998 16.4 4.3998 11.3C4.1998 10.7 3.9998 10 3.7998 9.3C3.9998 9.3 3.9998 9.4 3.9998 9.5C5.9998 13.8 7.9998 18.1 9.9998 22.4C10.3998 23.2 10.7998 24.1 11.1998 24.9C11.2998 25.1 11.3998 25.2 11.5998 25.1C12.9998 24.7 14.4998 24.6 15.8998 24.5C16.1998 24.5 16.1998 24.4 16.0998 24.2C13.3998 19.8 10.6998 15.5 7.9998 11.1C7.1998 10.1 6.5998 9 5.9998 7.9ZM10.3998 26.6C10.4998 26.7 10.6998 26.8 10.7998 26.8C11.2998 27 11.7998 27.1 12.2998 27.2C14.1998 27.6 16.0998 27.7 17.9998 27.8C21.0998 27.9 24.1998 27.8 27.1998 27.2C27.7998 27.1 28.4998 26.9 29.0998 26.6C28.9998 26.5 28.7998 26.4 28.6998 26.4C28.1998 26.2 27.6998 26.1 27.1998 26C25.2998 25.6 23.3998 25.5 21.4998 25.4C18.3998 25.3 15.2998 25.4 12.2998 26C11.5998 26.2 10.9998 26.3 10.3998 26.6Z" fill="#F18E21"/>
<path d="M6.59987 2.8C6.59987 3.6 6.59987 3.6 5.89987 3.5C5.59987 3.5 5.39987 3.5 5.09987 3.4C4.59987 3.3 4.19987 3.4 3.79987 3.7C3.39987 4 2.99987 4.2 2.59987 4.5C2.39987 4.6 2.29987 4.7 2.29987 5C2.19987 5.5 1.99987 6 1.89987 6.5C1.89987 6.7 1.79987 6.7 1.59987 6.7C0.699871 6.5 0.699871 6.5 0.899871 5.6V5.5C0.999871 5.1 1.29987 4.6 1.19987 4.2C1.19987 3.8 0.799871 3.4 0.499871 3C-0.300129 1.8 -0.20013 1.4 0.999871 0.6C1.39987 0.3 1.69987 0 2.29987 0C2.79987 0 3.09987 0.2 3.39987 0.6C3.59987 1 3.89987 1.5 4.19987 1.9C4.29987 2.1 4.49987 2.2 4.69987 2.2C5.19987 2.2 5.79987 2.3 6.29987 2.4C6.59987 2.4 6.79987 2.4 6.59987 2.8Z" fill="#F18E21"/>
<path d="M3.1001 7.1C3.1001 6.5 3.2001 6 3.2001 5.4C3.2001 5.2 4.3001 4.4 4.5001 4.5H4.6001C5.1001 4.7 5.6001 4.8 6.2001 5C5.2001 5.7 4.2001 6.4 3.1001 7.1Z" fill="#F18E21"/>
<path d="M5.8999 7.9C5.9999 7.8 5.8999 7.8 5.8999 7.9Z" fill="#F18E21"/>
<path d="M49.2 18.7L47.4 19.1L46.2 15.5L39.1 15.4L37.3 20.2L33.5 17.6L41 2.3L43.8 2L49.2 18.7ZM38.3 12.7L37.9 12.2C37.4 13 37 13.8 36.6 14.7C36.2 15.6 35.9 16.5 35.6 17.5L36.5 17.9C36.6 17 36.8 16.1 37.1 15.2C37.5 14.4 37.9 13.5 38.3 12.7ZM45.7 13.8L45.1 12L39.8 13.3L39.5 14.1L45.7 13.8ZM44.7 10.8L42.8 4.1L40.2 11.8L44.7 10.8Z" fill="#F28E20"/>
<path d="M65.4002 18.7L63.6002 19.1L62.4002 15.5L55.3002 15.4L53.5002 20.2L49.7002 17.6L57.2002 2.2L60.0002 2L65.4002 18.7ZM54.5002 12.7L54.1002 12.2C53.6002 13 53.2002 13.8 52.8002 14.7C52.4002 15.6 52.1002 16.5 51.8002 17.5L52.7002 17.9C52.8002 17 53.0002 16.1 53.3002 15.2C53.7002 14.4 54.1002 13.5 54.5002 12.7ZM61.9002 13.8L61.3002 12L56.0002 13.3L55.7002 14.1L61.9002 13.8ZM60.9002 10.8L59.0002 4.1L56.4002 11.8L60.9002 10.8Z" fill="#F28E20"/>
<path d="M89.3 2.8L87.4 5.6L85.8 5L81.8 18.8L81.1 19L77 8.7L71.9 19.6L71.5 17.7L70.1 18.2L69.9 17.3L71.3 16.8L70.9 15.2L69.5 15.6L69.3 14.6L70.7 14.2L70.3 12.4L69.1 13L68.7 12L70.2 11.4L69.8 9.6L68.1 10L67.9 9.1L69.7 8.6L69.3 6.7L68 7.3L67.7 6.5L69.1 6L68.7 3.8L67.4 4.2L67 3.2L70.3 2L73.8 12.4L78.8 1.6L82.6 11L85.6 1.5L89.3 2.8ZM81.9 12.9L78.4 4.6L77.7 5.9L81.3 14.9L81.9 12.9Z" fill="#F28E20"/>
<path d="M103.4 18.7L101.6 19.1L100.4 15.5L93.3002 15.4L91.5002 20.2L87.7002 17.6L95.2002 2.2L98.0002 2L103.4 18.7ZM92.5002 12.7L92.1002 12.2C91.6002 13 91.2002 13.8 90.8002 14.7C90.4002 15.6 90.1002 16.5 89.8002 17.5L90.7002 17.9C90.8002 17 91.0002 16.1 91.3002 15.2C91.8002 14.4 92.1002 13.5 92.5002 12.7ZM99.9002 13.8L99.3002 12L94.0002 13.4L93.7002 14.2L99.9002 13.8ZM98.9002 10.8L97.0002 4.1L94.4002 11.8L98.9002 10.8Z" fill="#F28E20"/>
<path d="M118.5 17.4C118.2 18 117.9 18.5 117.5 18.8C117.1 19.1 116.7 19.3 116.2 19.3C115.6 19.3 115.1 19.1 114.5 18.7C113.9 18.3 113.4 17.8 112.8 17L109.4 12.6L108.2 12.9L107.9 19.2L106 19.5L105.3 1.8H106.3L106.4 3.1L108.3 3.2L108.5 2L109.5 2.1L109.4 3.4L110.8 3.7L111.4 2.4L112.3 2.8L111.7 4C112 4.1 112.3 4.3 112.6 4.5C112.8 4.7 113 4.9 113.2 5.2L114.2 4.5L114.9 5.2L113.6 6C113.7 6.2 113.8 6.5 113.8 6.8C113.8 7.1 113.8 7.5 113.8 7.8L115.2 8.3L114.8 9.2L113.5 9C113.4 9.3 113.3 9.5 113.2 9.8C113.1 10.1 112.9 10.3 112.7 10.6L113.7 11.5L113.1 12.3L112 11.5L111.5 11.8L114.7 16.9C114.8 17.1 114.9 17.2 115.1 17.4C115.2 17.6 115.4 17.7 115.6 17.8C115.8 18 116 18.1 116.2 18.2C116.4 18.3 116.6 18.3 116.8 18.3C117.1 18.3 117.3 18.2 117.6 18.1C117.8 18 118.1 17.7 118.3 17.4H118.5ZM111.5 10.2L110.3 4.9C110.1 4.8 109.9 4.7 109.6 4.7C109.4 4.6 109.1 4.6 108.8 4.5L108.3 11.9C109 11.7 109.6 11.5 110.1 11.2C110.6 10.9 111.1 10.6 111.5 10.2Z" fill="#F28E20"/>
<path d="M133.2 18.7L131.4 19.1L130.2 15.5L123.1 15.4L121.3 20.2L117.5 17.6L125 2.3L127.8 2.1L133.2 18.7ZM122.3 12.7L121.9 12.2C121.4 13 121 13.8 120.6 14.7C120.2 15.6 119.9 16.5 119.6 17.5L120.5 17.9C120.6 17 120.8 16.1 121.1 15.2C121.5 14.4 121.9 13.5 122.3 12.7ZM129.7 13.8L129.1 12.1L123.7 13.4L123.4 14.2L129.7 13.8ZM128.7 10.8L126.8 4.1L124.2 11.8L128.7 10.8Z" fill="#F28E20"/>
<path d="M57.8998 23.9V25.5H60.0998V26H57.8998V27.7H57.2998V23.4H60.2998V23.9H57.8998Z" fill="black"/>
<path d="M68.6996 23.4H68.0996V27.7H68.6996V23.4Z" fill="black"/>
<path d="M77 23.4H77.6V27.2H80V27.7H77V23.4Z" fill="black"/>
<path d="M91.5996 27.7V24.6L90.0996 27.2H89.7996L88.1996 24.6V27.7H87.5996V23.4H88.0996L89.8996 26.4L91.6996 23.4H92.1996V27.7H91.5996Z" fill="black"/>
<path d="M100.8 27.6C100.5 27.5 100.3 27.4 100.1 27.2L100.3 26.7C100.5 26.8 100.7 27 100.9 27.1C101.2 27.2 101.4 27.2 101.7 27.2C102.1 27.2 102.3 27.1 102.5 27C102.7 26.9 102.8 26.7 102.8 26.5C102.8 26.4 102.8 26.2 102.7 26.1C102.6 26 102.5 25.9 102.3 25.9C102.2 25.8 102 25.8 101.7 25.7C101.4 25.6 101.1 25.5 100.9 25.5C100.7 25.4 100.5 25.3 100.4 25.1C100.3 24.9 100.2 24.7 100.2 24.4C100.2 24.2 100.3 24 100.4 23.8C100.5 23.6 100.7 23.5 101 23.4C101.2 23.3 101.6 23.2 101.9 23.2C102.2 23.2 102.4 23.2 102.7 23.3C102.9 23.4 103.2 23.5 103.3 23.6L103.1 24.1C102.9 24 102.7 23.9 102.5 23.8C102.3 23.7 102.1 23.7 101.9 23.7C101.5 23.7 101.3 23.8 101.1 23.9C100.9 24 100.8 24.2 100.8 24.4C100.8 24.5 100.8 24.7 100.9 24.8C101 24.9 101.1 25 101.3 25C101.4 25.1 101.6 25.1 101.9 25.2C102.2 25.3 102.5 25.4 102.7 25.4C102.9 25.5 103.1 25.6 103.2 25.8C103.3 26 103.4 26.2 103.4 26.5C103.4 26.7 103.3 26.9 103.2 27.1C103.1 27.3 102.9 27.4 102.6 27.5C102.3 27.6 102 27.7 101.7 27.7C101.4 27.8 101.1 27.7 100.8 27.6Z" fill="black"/>
</svg>
